<svg width="57" height="57" viewBox="0 0 57 57" fill="none" xmlns="http://www.w3.org/2000/svg">
<path d="M6.78571 0C3.04 0 0 3.04 0 6.78571V50.2143C0 53.96 3.04 57 6.78571 57H50.2143C53.96 57 57 53.96 57 50.2143V6.78571C57 3.04 53.96 0 50.2143 0H6.78571ZM10.8571 19H19.9913C20.9821 19 26.3424 18.9326 26.3424 23.8454C26.3424 26.4511 24.564 27.3324 23.7633 27.726C24.9575 28.106 27.1429 29.2057 27.1429 32.5714C27.1429 37.7693 21.1844 38 20.3836 38H10.8571V19ZM33.9286 19H43.4286V21.7143H33.9286V19ZM14.9286 22.2974V26.7506H19.2995C19.8967 26.7506 21.876 26.4236 21.876 24.4286C21.876 22.4336 19.2981 22.2974 18.9046 22.2974H14.9286ZM38.9913 23.0714C44.2842 23.0714 45.7216 27.1968 45.9388 28.174C46.1423 29.1647 46.1429 30.0336 46.1429 31.2143H35.4209C35.4209 32.395 36.0466 35.0551 39.2087 35.0551C40.0501 35.0551 40.6728 34.8523 41.3107 34.4587C41.935 34.0651 42.1541 33.6833 42.3577 33.2898H45.9255C45.3012 34.8505 44.4601 36.0333 43.198 36.8205C41.9358 37.6076 40.4701 38 38.7872 38C37.7287 38 36.6836 37.7972 35.625 37.4036C34.7836 37.01 33.9432 36.4259 33.3189 35.8424C32.6946 35.2452 32.2738 34.4577 31.8531 33.4806C31.4324 32.6935 31.2143 31.5129 31.2143 30.5357C31.2143 29.5586 31.6085 23.0714 38.9913 23.0714ZM38.9913 25.8255C35.9242 25.8255 35.4209 28.7712 35.4209 28.9612H42.1536C41.9365 27.9841 41.0542 25.8255 38.9913 25.8255ZM14.9286 29.4648V34.7026H19.4771C19.8693 34.7026 22.6367 34.5813 22.6367 32.1791C22.6367 29.7906 20.4624 29.4648 19.4771 29.4648H14.9286Z" fill="#968E8E"/>
</svg>
