<svg width="52" height="53" viewBox="0 0 52 53" fill="none" xmlns="http://www.w3.org/2000/svg">
<path fill-rule="evenodd" clip-rule="evenodd" d="M11.3947 5.93926L12.4246 6.10371L13.4851 6.40298L34.6253 14.0884L35.5504 14.4659L36.4386 14.9451L37.2829 15.5155L38.0767 16.1668L38.8128 16.8893L39.4843 17.6732L40.0838 18.5092L40.6036 19.3877L41.0359 20.2997L41.3725 21.236L41.6048 22.1873L41.724 23.1443L42.1005 44.0184L42.1006 44.019L41.9737 45.0331L41.724 45.9711L41.3578 46.8248L40.8816 47.5856L40.3022 48.2445L39.6263 48.7919L38.8612 49.2183L38.0146 49.5136L37.0941 49.668L36.1086 49.6713L35.0666 49.5135L11.7092 44.5328L10.568 44.2691L9.36747 43.7546L8.21988 43.0094L7.19266 42.2345L6.25454 41.3499L5.41783 40.3704L4.69443 39.3114L4.09577 38.1887L3.63278 37.0179L3.31577 35.815L3.1543 34.5955L3.15744 33.3754L5.0124 10.8993L5.16128 9.92088L5.45088 9.03809L5.86879 8.25584L6.40277 7.57863L7.0408 7.01062L7.77115 6.5557L8.58246 6.21756L9.46377 5.99976L10.4046 5.90582L11.3947 5.93926ZM42.1005 44.0184L41.724 23.1443L42.0981 42.9367L42.1005 44.0184Z" fill="url(#paint0_linear_244_3904)" fill-opacity="0.5"/>
<path fill-rule="evenodd" clip-rule="evenodd" d="M9.67123 4.015L9.52235 4.99342L7.76214 29.2376L7.75901 30.4577L7.92044 31.677L8.23748 32.88L8.70048 34.0508L9.29913 35.1736L10.0225 36.2325L10.8592 37.212L11.7974 38.0967L12.8246 38.8716L13.9283 39.5221L15.0955 40.0343L16.3134 40.3949L41.293 46.0527L42.3349 46.2105L43.3205 46.2073L44.2409 46.0529L45.0875 45.7576L44.2446 46.2572L43.4824 46.6821L42.677 47.1598L43.482 46.6823L43.4824 46.6821L44.2446 46.2572L45.0875 45.7576L45.8527 45.3312L44.2453 46.2567L44.2449 46.257L44.2446 46.2572L43.4824 46.6821L42.677 47.1598L41.1476 48.0406L39.6551 48.9L38.9009 49.3208L38.0701 49.6164L37.1707 49.7772L36.2111 49.7933L35.2002 49.6552L11.0965 44.5615L9.92734 44.2328L8.8096 43.7582L7.75548 43.1501L6.77707 42.4218L5.8862 41.5869L5.09441 40.6596L4.41285 39.6543L3.85228 38.5858L3.42293 37.469L3.1345 36.3187L2.99609 35.1498L3.0162 33.9773L5.06027 10.5438L5.2185 9.59226L5.51167 8.7301L6.99992 6.61054L7.52896 5.9397L8.62921 4.55228L9.75665 3.13058L10.9116 1.67413L10.3787 2.34996L9.96083 3.13221L9.67123 4.015Z" fill="url(#paint1_linear_244_3904)"/>
<g filter="url(#filter0_b_244_3904)">
<path fill-rule="evenodd" clip-rule="evenodd" d="M15.9054 0.0334379L16.9353 0.19789L17.9958 0.497153L39.8317 7.98789L40.7569 8.36535L41.645 8.84455L42.4894 9.41494L43.2831 10.0663L44.0193 10.7888L44.6908 11.5727L45.2903 12.4086L45.8101 13.2872L46.2423 14.1992L46.579 15.1355L46.8113 16.0867L46.9305 17.0438L48.3277 40.5577L48.3277 40.5583L48.2009 41.5724L47.9512 42.5104L47.585 43.3641L47.1088 44.1249L46.5294 44.7838L45.8535 45.3312L45.0884 45.7576L44.2418 46.0529L43.3213 46.2073L42.3358 46.2106L41.2938 46.0528L16.3147 40.3951L15.1734 40.1313L13.9729 39.6168L12.8253 38.8716L11.7981 38.0968L10.86 37.2121L10.0233 36.2326L9.2999 35.1737L8.70124 34.0509L8.23825 32.8801L7.92124 31.6772L7.75977 30.4577L7.7629 29.2377L9.52311 4.99348L9.67199 4.01506L9.96159 3.13227L10.3795 2.35002L10.9135 1.67281L11.5515 1.1048L12.2819 0.649875L13.0932 0.311741L13.9745 0.0939421L14.9153 0L15.9054 0.0334379ZM48.3277 40.5577L46.9305 17.0438L48.3253 39.476L48.3277 40.5577Z" fill="url(#paint2_linear_244_3904)" fill-opacity="0.3"/>
<path d="M47.8259 40.542L47.709 41.4766L47.4774 42.3466L47.1407 43.1315L46.7066 43.8252L46.1818 44.4218L45.5724 44.9154L44.8828 45.2997L44.1172 45.5669L43.2788 45.7075L42.3726 45.7105L41.3866 45.5611L16.4273 39.9079L16.4251 39.9074L15.3295 39.6542L14.2093 39.1741L13.1124 38.4618L12.1212 37.7141L11.2227 36.8668L10.421 35.9283L9.7282 34.9142L9.15578 33.8407L8.71416 32.7239L8.41277 31.5803L8.25985 30.4254L8.26286 29.2564L10.0204 5.04927L10.16 4.13139L10.4231 3.32948L10.7996 2.62476L11.2788 2.01697L11.8521 1.50663L12.5117 1.09576L13.2502 0.787968L14.0597 0.587916L14.9317 0.500841L15.8574 0.5321L16.8276 0.687029L17.8466 0.974594L39.6561 8.45622L40.5432 8.81815L41.3857 9.27278L42.1902 9.81623L42.9488 10.4387L43.6537 11.1305L44.2971 11.8816L44.8711 12.6821L45.3681 13.5221L45.7801 14.3913L46.0995 15.2797L46.3187 16.1773L46.4323 17.0896L47.8259 40.542Z" stroke="url(#paint3_linear_244_3904)"/>
</g>
<g filter="url(#filter1_d_244_3904)">
<path fill-rule="evenodd" clip-rule="evenodd" d="M18.2187 19.2563L19.2 18.2056L18.0368 19.4513L18.2187 19.2563ZM41.895 20.1171L28.688 29.902L28.6868 29.9029L28.4543 30.0467L28.2031 30.1495L27.937 30.2121L27.6595 30.2351L27.3745 30.2193L27.0856 30.1655L26.7968 30.0744L26.5119 29.9469L26.2348 29.784L25.8232 30.3145L25.4116 30.845L25.6934 30.9698L25.9792 31.0586L26.2653 31.1106L26.5478 31.125L26.823 31.101L27.0872 31.0378L27.3367 30.9349L27.568 30.7915L40.7332 21.031L40.7339 21.0305L41.895 20.1171ZM19.0173 18.4015L18.0368 19.4513L17.8914 19.672L17.7828 19.9149L17.7115 20.1762L17.6777 20.4522L17.682 20.7391L17.7246 21.0332L17.8058 21.3305L17.926 21.6272L18.0851 21.9193L18.2835 22.2029L24.4022 30.0039L24.6291 30.2634L24.8756 30.4908L25.1377 30.685L25.4116 30.845L25.8232 30.3145L26.2348 29.784L25.9694 29.5866L25.7197 29.3556L25.4894 29.0923L19.2786 21.1813L19.077 20.8938L18.9151 20.598L18.7925 20.2977L18.7092 19.997L18.6649 19.6998L18.6593 19.4101L18.6922 19.1316L18.763 18.8681L18.8716 18.6235L19.0173 18.4015ZM19.0173 18.4015L19.2 18.2056L18.0368 19.4513L19.0173 18.4015Z" fill="url(#paint4_linear_244_3904)"/>
<path fill-rule="evenodd" clip-rule="evenodd" d="M41.788 17.3825L41.9636 17.6338L42.1094 17.8912L42.2253 18.1517L42.3114 18.4123L42.3673 18.6697L42.3929 18.921L42.388 19.1628L42.3523 19.392L42.2855 19.6054L42.1874 19.7996L42.0576 19.9713L41.8958 20.1171L28.6885 29.9023L28.6876 29.9029L28.4551 30.0467L28.204 30.1495L27.9378 30.2121L27.6603 30.2351L27.3753 30.2193L27.0864 30.1655L26.7976 30.0744L26.5128 29.9469L26.2357 29.784L25.9703 29.5865L27.1915 24.6871L39.107 16.491L39.2985 16.3845L39.5062 16.3149L39.7271 16.2808L39.9579 16.2811L40.1954 16.3146L40.4366 16.38L40.6783 16.4762L40.9174 16.6022L41.151 16.7568L41.376 16.939L41.5893 17.1479L41.788 17.3825ZM18.693 19.1314L18.7638 18.8681L18.8723 18.6236L19.667 17.9106L20.7875 17.796L21.0815 17.8611L21.3734 17.9613L21.6597 18.0954L21.9367 18.2624L22.2007 18.4611L22.448 18.6905L22.675 18.9499L27.1915 24.6871L25.9703 29.5865L25.7205 29.3556L25.4902 29.0923L19.2794 21.1813L19.0779 20.8938L18.9159 20.598L18.7933 20.2977L18.71 19.997L18.6657 19.6998L18.6602 19.4101L18.693 19.1314ZM20.7875 17.796L20.4953 17.7671L20.2086 17.7757L19.9312 17.8231L19.667 17.9106L20.7875 17.796ZM19.667 17.9106L19.4199 18.0394L19.2009 18.2055L19.0182 18.4014L18.8723 18.6236L19.667 17.9106Z" fill="url(#paint5_linear_244_3904)"/>
</g>
<defs>
<filter id="filter0_b_244_3904" x="-5.24023" y="-13" width="66.5684" height="72.2106" filterUnits="userSpaceOnUse" color-interpolation-filters="sRGB">
<feFlood flood-opacity="0" result="BackgroundImageFix"/>
<feGaussianBlur in="BackgroundImageFix" stdDeviation="6.5"/>
<feComposite in2="SourceAlpha" operator="in" result="effect1_backgroundBlur_244_3904"/>
<feBlend mode="normal" in="SourceGraphic" in2="effect1_backgroundBlur_244_3904" result="shape"/>
</filter>
<filter id="filter1_d_244_3904" x="0.972417" y="11.6405" width="50.7009" height="40.8302" filterUnits="userSpaceOnUse" color-interpolation-filters="sRGB">
<feFlood flood-opacity="0" result="BackgroundImageFix"/>
<feColorMatrix in="SourceAlpha" type="matrix" values="0 0 0 0 0 0 0 0 0 0 0 0 0 0 0 0 0 0 127 0" result="hardAlpha"/>
<feOffset dx="-3.71229" dy="8.35266"/>
<feGaussianBlur stdDeviation="6.49651"/>
<feComposite in2="hardAlpha" operator="out"/>
<feColorMatrix type="matrix" values="0 0 0 0 0.103333 0 0 0 0 0.4104 0 0 0 0 0.43 0 0 0 0.25 0"/>
<feBlend mode="normal" in2="BackgroundImageFix" result="effect1_dropShadow_244_3904"/>
<feBlend mode="normal" in="SourceGraphic" in2="effect1_dropShadow_244_3904" result="shape"/>
</filter>
<linearGradient id="paint0_linear_244_3904" x1="4.28392" y1="52.4191" x2="39.8966" y2="9.13991" gradientUnits="userSpaceOnUse">
<stop offset="0.320833" stop-color="white"/>
<stop offset="0.58125" stop-color="white"/>
<stop offset="0.89375" stop-color="white" stop-opacity="0.79"/>
</linearGradient>
<linearGradient id="paint1_linear_244_3904" x1="-7.52897" y1="8.19543" x2="42.2748" y2="57.9333" gradientUnits="userSpaceOnUse">
<stop stop-color="#E5007E"/>
<stop offset="0.35896" stop-color="#E5007E"/>
<stop offset="0.683604" stop-color="#E5007E"/>
<stop offset="0.723958" stop-color="#E5007E"/>
<stop offset="1" stop-color="#E5007E"/>
</linearGradient>
<linearGradient id="paint2_linear_244_3904" x1="9.049" y1="47.9499" x2="44.6617" y2="4.67064" gradientUnits="userSpaceOnUse">
<stop offset="0.320833" stop-color="#E5007E"/>
<stop offset="0.685417" stop-color="#E5007E"/>
<stop offset="0.89375" stop-color="#E5007E"/>
</linearGradient>
<linearGradient id="paint3_linear_244_3904" x1="7.68673" y1="41.7577" x2="47.0957" y2="8.69643" gradientUnits="userSpaceOnUse">
<stop offset="0.180663" stop-color="white" stop-opacity="0.35"/>
<stop offset="0.533255" stop-color="white" stop-opacity="0"/>
</linearGradient>
<linearGradient id="paint4_linear_244_3904" x1="16.5482" y1="8.69695" x2="16.8322" y2="34.0698" gradientUnits="userSpaceOnUse">
<stop offset="0.301696" stop-color="#E5007E"/>
<stop offset="0.993284" stop-color="#E5007E"/>
</linearGradient>
<linearGradient id="paint5_linear_244_3904" x1="28.6163" y1="34.5172" x2="41.3983" y2="11.7628" gradientUnits="userSpaceOnUse">
<stop stop-color="white"/>
<stop offset="0.644664" stop-color="white" stop-opacity="0.57"/>
</linearGradient>
</defs>
</svg>
