<svg width="258" height="235" viewBox="0 0 258 235" fill="none" xmlns="http://www.w3.org/2000/svg">
<g opacity="0.7" filter="url(#filter0_f_777_58)">
<path d="M198 99.1564C198 130.913 149.074 175 117.383 175C85.6911 175 60 149.256 60 117.5C60 85.7436 85.6911 60 117.383 60C149.074 60 198 67.4001 198 99.1564Z" fill="url(#paint0_linear_777_58)" fill-opacity="0.3"/>
</g>
<path fill-rule="evenodd" clip-rule="evenodd" d="M90.0381 59.9258L91.7593 60.2006L93.5315 60.7007L128.861 73.5447L130.408 74.1756L131.892 74.9764L133.303 75.9297L134.629 77.0183L135.86 78.2257L136.982 79.5358L137.984 80.9328L138.852 82.4011L139.575 83.9252L140.137 85.4899L140.526 87.0797L140.725 88.6792L141.354 123.564L141.354 123.565L141.142 125.26L140.725 126.828L140.113 128.254L139.317 129.526L138.349 130.627L137.219 131.542L135.941 132.254L134.526 132.748L132.987 133.006L131.34 133.011L129.599 132.748L90.5637 124.424L88.6565 123.983L86.6502 123.123L84.7323 121.878L83.0156 120.583L81.4478 119.105L80.0495 117.468L78.8405 115.698L77.84 113.821L77.0662 111.865L76.5365 109.855L76.2666 107.817L76.2718 105.778L79.3719 68.2151L79.6207 66.5799L80.1047 65.1046L80.8031 63.7973L81.6955 62.6655L82.7618 61.7162L83.9824 60.956L85.3382 60.3909L86.8111 60.0269L88.3834 59.8699L90.0381 59.9258ZM141.354 123.564L140.725 88.6792L141.35 121.756L141.354 123.564Z" fill="url(#paint1_linear_777_58)" fill-opacity="0.5"/>
<path fill-rule="evenodd" clip-rule="evenodd" d="M87.1556 56.7099L86.9068 58.3451L83.9651 98.8624L83.9599 100.901L84.2296 102.939L84.7595 104.95L85.5333 106.906L86.5337 108.783L87.7427 110.552L89.141 112.189L90.7088 113.668L92.4255 114.963L94.27 116.05L96.2208 116.906L98.2561 117.509L140.003 126.964L141.744 127.228L143.391 127.222L144.929 126.964L146.344 126.471L144.935 127.306L143.661 128.016L142.315 128.814L143.661 128.016L143.661 128.016L144.935 127.306L146.344 126.471L147.623 125.758L144.936 127.305L144.936 127.305L144.935 127.306L143.661 128.016L142.315 128.814L139.759 130.286L137.265 131.722L136.005 132.426L134.616 132.92L133.113 133.188L131.509 133.215L129.82 132.985L89.5375 124.472L87.5836 123.923L85.7156 123.129L83.954 122.113L82.3188 120.896L80.83 119.501L79.5067 117.951L78.3677 116.271L77.4309 114.485L76.7133 112.619L76.2313 110.696L76 108.743L76.0336 106.783L79.4497 67.621L79.7141 66.0308L80.2041 64.5899L82.6913 61.0477L83.5754 59.9265L85.4142 57.6078L87.2983 55.2319L89.2286 52.7979L88.338 53.9273L87.6396 55.2346L87.1556 56.7099Z" fill="url(#paint2_linear_777_58)"/>
<g filter="url(#filter1_b_777_58)">
<path fill-rule="evenodd" clip-rule="evenodd" d="M97.5726 50.0559L99.2938 50.3307L101.066 50.8309L137.559 63.3495L139.105 63.9803L140.589 64.7812L142 65.7344L143.327 66.823L144.557 68.0304L145.679 69.3405L146.681 70.7375L147.55 72.2058L148.272 73.73L148.835 75.2946L149.223 76.8844L149.422 78.4839L151.757 117.781L151.757 117.782L151.545 119.476L151.128 121.044L150.516 122.471L149.72 123.742L148.752 124.843L147.622 125.758L146.344 126.471L144.929 126.964L143.39 127.222L141.743 127.228L140.002 126.964L98.2566 117.509L96.3493 117.068L94.343 116.208L92.4251 114.963L90.7085 113.668L89.1407 112.189L87.7423 110.553L86.5334 108.783L85.5329 106.906L84.7591 104.95L84.2293 102.939L83.9595 100.901L83.9647 98.8625L86.9064 58.3452L87.1552 56.71L87.6392 55.2347L88.3376 53.9274L89.23 52.7956L90.2963 51.8464L91.5169 51.0861L92.8727 50.521L94.3456 50.157L95.9179 50L97.5726 50.0559ZM151.757 117.781L149.422 78.4839L151.753 115.973L151.757 117.781Z" fill="url(#paint3_linear_777_58)" fill-opacity="0.3"/>
<path d="M151.255 117.765L151.053 119.381L150.654 120.88L150.072 122.238L149.318 123.443L148.404 124.481L147.341 125.342L146.138 126.013L144.804 126.478L143.348 126.723L141.78 126.728L140.095 126.472L98.3692 117.022L98.367 117.021L96.5053 116.591L94.5794 115.766L92.7122 114.553L91.0315 113.285L89.5033 111.844L88.14 110.248L86.9617 108.523L85.9874 106.696L85.235 104.794L84.7209 102.843L84.4596 100.869L84.4647 98.8812L87.4037 58.401L87.6433 56.8264L88.1007 55.4319L88.7577 54.2021L89.5954 53.1398L90.5969 52.2482L91.7467 51.532L93.0298 50.9972L94.4309 50.651L95.9343 50.5008L97.5246 50.5545L99.1861 50.8199L100.917 51.3083L137.383 63.8178L138.891 64.4331L140.33 65.2094L141.701 66.1357L142.992 67.1954L144.191 68.3721L145.286 69.6494L146.262 71.011L147.108 72.4407L147.81 73.9221L148.355 75.4389L148.73 76.9749L148.924 78.5297L151.255 117.765Z" stroke="url(#paint4_linear_777_58)"/>
</g>
<g filter="url(#filter2_d_777_58)">
<path fill-rule="evenodd" clip-rule="evenodd" d="M101.445 82.1815L103.085 80.4255L101.141 82.5074L101.445 82.1815ZM141.013 83.6202L118.942 99.9729L118.94 99.9743L118.551 100.215L118.131 100.386L117.686 100.491L117.223 100.53L116.746 100.503L116.264 100.413L115.781 100.261L115.305 100.048L114.842 99.7756L114.154 100.662L113.466 101.549L113.937 101.757L114.415 101.906L114.893 101.993L115.365 102.017L115.825 101.977L116.266 101.871L116.683 101.699L117.07 101.459L139.072 85.1474L139.073 85.1466L141.013 83.6202ZM102.78 80.7529L101.141 82.5074L100.898 82.8763L100.717 83.2822L100.597 83.7188L100.541 84.1801L100.548 84.6596L100.619 85.1511L100.755 85.648L100.956 86.1439L101.222 86.6321L101.553 87.106L111.779 100.143L112.158 100.577L112.57 100.957L113.008 101.281L113.466 101.549L114.154 100.662L114.842 99.7756L114.398 99.4456L113.981 99.0597L113.596 98.6196L103.216 85.3986L102.88 84.9182L102.609 84.4238L102.404 83.922L102.265 83.4195L102.191 82.9228L102.181 82.4385L102.236 81.9731L102.355 81.5328L102.536 81.124L102.78 80.7529ZM102.78 80.7529L103.085 80.4255L101.141 82.5074L102.78 80.7529Z" fill="url(#paint5_linear_777_58)"/>
<path fill-rule="evenodd" clip-rule="evenodd" d="M140.833 79.0499L141.127 79.4698L141.37 79.9L141.564 80.3354L141.708 80.7709L141.801 81.2011L141.844 81.621L141.836 82.0252L141.776 82.4082L141.665 82.7648L141.501 83.0893L141.284 83.3763L141.013 83.62L118.941 99.9731L118.94 99.9742L118.551 100.214L118.131 100.386L117.687 100.491L117.223 100.529L116.746 100.503L116.264 100.413L115.781 100.261L115.305 100.048L114.842 99.7754L114.398 99.4455L116.439 91.2574L136.353 77.56L136.673 77.382L137.02 77.2656L137.389 77.2087L137.775 77.2092L138.172 77.2651L138.575 77.3745L138.979 77.5353L139.378 77.7458L139.769 78.0042L140.145 78.3087L140.501 78.6579L140.833 79.0499ZM102.237 81.9727L102.355 81.5327L102.536 81.1241L103.864 79.9324L105.737 79.7409L106.228 79.8497L106.716 80.0172L107.195 80.2413L107.657 80.5203L108.099 80.8524L108.512 81.2359L108.891 81.6693L116.439 91.2574L114.398 99.4455L113.981 99.0596L113.596 98.6195L103.216 85.3984L102.88 84.9181L102.609 84.4237L102.404 83.9218L102.265 83.4193L102.191 82.9226L102.182 82.4384L102.237 81.9727ZM105.737 79.7409L105.248 79.6926L104.769 79.707L104.306 79.7862L103.864 79.9324L105.737 79.7409ZM103.864 79.9324L103.451 80.1478L103.085 80.4253L102.78 80.7528L102.536 81.1241L103.864 79.9324Z" fill="url(#paint6_linear_777_58)"/>
</g>
<defs>
<filter id="filter0_f_777_58" x="0" y="0" width="258" height="235" filterUnits="userSpaceOnUse" color-interpolation-filters="sRGB">
<feFlood flood-opacity="0" result="BackgroundImageFix"/>
<feBlend mode="normal" in="SourceGraphic" in2="BackgroundImageFix" result="shape"/>
<feGaussianBlur stdDeviation="30" result="effect1_foregroundBlur_777_58"/>
</filter>
<filter id="filter1_b_777_58" x="70.9595" y="37" width="93.7979" height="103.228" filterUnits="userSpaceOnUse" color-interpolation-filters="sRGB">
<feFlood flood-opacity="0" result="BackgroundImageFix"/>
<feGaussianBlur in="BackgroundImageFix" stdDeviation="6.5"/>
<feComposite in2="SourceAlpha" operator="in" result="effect1_backgroundBlur_777_58"/>
<feBlend mode="normal" in="SourceGraphic" in2="effect1_backgroundBlur_777_58" result="shape"/>
</filter>
<filter id="filter2_d_777_58" x="83.8357" y="72.5684" width="67.2893" height="50.7939" filterUnits="userSpaceOnUse" color-interpolation-filters="sRGB">
<feFlood flood-opacity="0" result="BackgroundImageFix"/>
<feColorMatrix in="SourceAlpha" type="matrix" values="0 0 0 0 0 0 0 0 0 0 0 0 0 0 0 0 0 0 127 0" result="hardAlpha"/>
<feOffset dx="-3.71229" dy="8.35266"/>
<feGaussianBlur stdDeviation="6.49651"/>
<feComposite in2="hardAlpha" operator="out"/>
<feColorMatrix type="matrix" values="0 0 0 0 0.103333 0 0 0 0 0.4104 0 0 0 0 0.43 0 0 0 0.25 0"/>
<feBlend mode="normal" in2="BackgroundImageFix" result="effect1_dropShadow_777_58"/>
<feBlend mode="normal" in="SourceGraphic" in2="effect1_dropShadow_777_58" result="shape"/>
</filter>
<linearGradient id="paint0_linear_777_58" x1="82.7734" y1="51.8101" x2="117.598" y2="174.939" gradientUnits="userSpaceOnUse">
<stop offset="0.109982" stop-color="#193C50" stop-opacity="0"/>
<stop offset="0.612888" stop-color="#1488C9" stop-opacity="0.83"/>
</linearGradient>
<linearGradient id="paint1_linear_777_58" x1="78.1544" y1="137.604" x2="137.671" y2="65.2747" gradientUnits="userSpaceOnUse">
<stop offset="0.320833" stop-color="#C0EEF1"/>
<stop offset="0.58125" stop-color="#8FC3D0"/>
<stop offset="0.89375" stop-color="#2A9FAF" stop-opacity="0.79"/>
</linearGradient>
<linearGradient id="paint2_linear_777_58" x1="58.4103" y1="63.6963" x2="141.643" y2="146.819" gradientUnits="userSpaceOnUse">
<stop stop-color="#CBF3FF"/>
<stop offset="0.35896" stop-color="#39B8C9"/>
<stop offset="0.683604" stop-color="#089EB3"/>
<stop offset="1" stop-color="#68A4B7"/>
</linearGradient>
<linearGradient id="paint3_linear_777_58" x1="86.1141" y1="130.135" x2="145.631" y2="57.8056" gradientUnits="userSpaceOnUse">
<stop offset="0.320833" stop-color="#A2F4FF"/>
<stop offset="0.685417" stop-color="#68D3E9" stop-opacity="0.9405"/>
<stop offset="0.89375" stop-color="#009BB0" stop-opacity="0.79"/>
</linearGradient>
<linearGradient id="paint4_linear_777_58" x1="83.8374" y1="119.786" x2="149.698" y2="64.5336" gradientUnits="userSpaceOnUse">
<stop offset="0.180663" stop-color="white" stop-opacity="0.35"/>
<stop offset="0.533255" stop-color="white" stop-opacity="0"/>
</linearGradient>
<linearGradient id="paint5_linear_777_58" x1="98.6534" y1="64.5346" x2="99.1279" y2="106.938" gradientUnits="userSpaceOnUse">
<stop offset="0.301696" stop-color="#C5E7EE"/>
<stop offset="0.993284" stop-color="#7FB8C0" stop-opacity="0.63"/>
</linearGradient>
<linearGradient id="paint6_linear_777_58" x1="118.821" y1="107.686" x2="140.182" y2="69.6581" gradientUnits="userSpaceOnUse">
<stop stop-color="white"/>
<stop offset="0.644664" stop-color="white" stop-opacity="0.57"/>
</linearGradient>
</defs>
</svg>
