<svg width="64" height="64" viewBox="0 0 64 64" fill="none" xmlns="http://www.w3.org/2000/svg">
<path d="M4.1 50.1C4.3 48.5 5.2 47.1 6.4 46.2C7.4 45.4 8.6 45 10 45C11.5 45 12.8 45.5 13.9 46.4C14.3 46.9 14.7 47.4 15.1 47.8C15.7 48.7 16 49.8 16 51C16 51.1 16 51.2 16 51.2C15.9 53.6 14.4 55.7 12.3 56.5C11.6 56.8 10.8 57 10 57C9.9 57 9.7 57 9.6 57C6.5 56.8 4 54.2 4 51C4 50.7 4 50.4 4.1 50.1Z" fill="#8B8B8B"/>
<path d="M9.1 36.1C9.3 34.5 10.2 33.1 11.4 32.2C12.4 31.4 13.6 31 15 31C16.5 31 17.8 31.5 18.9 32.4C19.3 32.9 19.7 33.4 20.1 33.8C20.7 34.7 21 35.8 21 37C21 37.1 21 37.2 21 37.2C20.9 39.6 19.4 41.7 17.3 42.5C16.6 42.8 15.8 43 15 43C14.9 43 14.7 43 14.6 43C11.5 42.8 9 40.2 9 37C9 36.7 9 36.4 9.1 36.1Z" fill="#C1C1C1"/>
<path d="M17.1 44.1C17.3 42.5 18.2 41.1 19.4 40.2C20.4 39.4 21.6 39 23 39C24.5 39 25.8 39.5 26.9 40.4C27.3 40.9 27.7 41.4 28.1 41.8C28.7 42.7 29 43.8 29 45C29 45.1 29 45.2 29 45.2C28.9 47.6 27.4 49.7 25.3 50.5C24.6 50.8 23.8 51 23 51C22.9 51 22.7 51 22.6 51C19.5 50.8 17 48.2 17 45C17 44.7 17 44.4 17.1 44.1Z" fill="#C1C1C1"/>
<path d="M26.1 47.8C26.4 45.7 27.6 43.9 29.2 42.6C30.5 41.6 32.2 41 34 41C36 41 37.8 41.7 39.2 42.9C39.7 43.6 40.2 44.2 40.8 44.8C41.6 46 42 47.5 42 49C42 49.1 42 49.2 42 49.3C41.9 52.5 39.9 55.3 37 56.4C36.1 56.8 35.1 57 34 57C33.8 57 33.6 57 33.5 57C29.3 56.7 26 53.3 26 49C26 48.6 26 48.2 26.1 47.8Z" fill="#C1C1C1"/>
<path d="M18.1 52.9C18.4 51.1 19.4 49.5 20.8 48.4C22 47.5 23.4 47 25 47C26.7 47 28.3 47.6 29.5 48.7C29.9 49.3 30.4 49.8 30.9 50.4C31.6 51.5 31.9 52.7 31.9 54.1C31.9 54.2 31.9 54.3 31.9 54.4C31.8 57.2 30 59.6 27.6 60.6C26.8 60.8 25.9 61 25 61C24.8 61 24.7 61 24.5 61C20.8 60.8 18 57.7 18 54C18 53.6 18 53.3 18.1 52.9Z" fill="#8B8B8B"/>
<path d="M7.1 45.8C7.4 43.7 8.6 41.9 10.2 40.6C11.5 39.6 13.2 39 15 39C17 39 18.8 39.7 20.2 40.9C20.7 41.6 21.2 42.2 21.8 42.8C22.6 44 23 45.5 23 47C23 47.1 23 47.2 23 47.3C22.9 50.5 20.9 53.3 18 54.4C17.1 54.8 16 55 15 55C14.8 55 14.7 55 14.5 55C10.3 54.7 7 51.2 7 47C7 46.6 7 46.2 7.1 45.8Z" fill="#EEEEEE"/>
<path d="M56 34.1C55.7 35.1 55.3 36.1 54.8 37C55.3 36.1 55.7 35.1 56 34.1C52.5 40 46 44 38.5 44C27.2 44 18 34.8 18 23.5C18 22.8 18 22.2 18.1 21.5C18.2 20.5 18.4 19.5 18.6 18.5C16.9 21.5 16 24.9 16 28.5C16 29.4 16.1 30.3 16.2 31.1C16.7 34.7 18.1 38.1 20.2 40.9C20.8 41.4 21.4 42.1 21.8 42.8C25.2 46.2 29.7 48.5 34.8 48.9C35.4 49 35.9 49 36.5 49C38.4 49 40.2 48.7 42 48.3C49 46.4 54.6 40.7 56.4 33.6C56.3 33.8 56.2 33.9 56 34.1Z" fill="#8B8B8B"/>
<path d="M36.5 50C30.7 50 25.2 47.7 21.1 43.5C20.5 42.9 19.9 42.2 19.4 41.5C17.1 38.5 15.7 34.9 15.2 31.2C15.1 30.3 15 29.4 15 28.5C15 24.8 15.9 21.2 17.8 18L19.6 18.9C17.9 21.9 17.1 25.1 17.1 28.5C17.1 29.3 17.2 30.2 17.3 31C17.7 34.4 19 37.6 21.1 40.3C21.6 40.9 22.1 41.5 22.6 42.1C26.3 45.9 31.3 48 36.6 48C38.4 48 40.1 47.8 41.8 47.3C48.5 45.5 53.7 40.1 55.5 33.3L57.4 33.8C55.5 41.3 49.7 47.2 42.3 49.2C40.4 49.7 38.4 50 36.5 50Z" fill="#8B8B8B"/>
<path d="M18.1 21.5C17.4 23.5 17 25.7 17 28C17 39 25.9 48 37 48C45.9 48 53.5 42.2 56.1 34.1C56.1 34.1 56.1 34.1 56.1 34" stroke="white" stroke-width="2" stroke-miterlimit="10" stroke-dasharray="1 1"/>
<path d="M38.5 45C26.6 45 17 35.4 17 23.5C17 22.8 17 22.1 17.1 21.4C17.2 20.3 17.4 19.2 17.7 18.2C20.1 8.7 28.6 2 38.5 2C38.7 2 38.8 2 39 2C39.1 2 39.2 2 39.2 2V4C39.1 4 38.9 4 38.8 4C38.7 4 38.6 4 38.4 4C29.4 4 21.7 10.1 19.5 18.7C19.3 19.6 19.1 20.6 19 21.6C19 22.2 19 22.8 19 23.5C19 34.3 27.7 43 38.5 43C45.4 43 51.6 39.5 55.2 33.6L55.5 33.1C55.5 33.1 55.5 33 55.6 33L55.8 32.6C57.3 29.8 58.1 26.7 58.1 23.5C58.1 23.4 58.1 23.2 58.1 23.1C58.1 23 58.1 22.9 58.1 22.7H60.1C60.1 22.8 60.1 22.8 60.1 22.9C60.1 23.1 60.1 23.3 60.1 23.5C60.1 27.2 59.2 30.8 57.4 34L57 34.6H56.9C53 41.1 46.1 45 38.5 45Z" fill="#C1C1C1"/>
<path d="M56.1 34.1C52.5 40 46 44 38.5 44C27.2 44 18 34.8 18 23.5C18 22.8 18 22.2 18.1 21.5C18.2 20.5 18.4 19.5 18.6 18.5C20.9 9.6 28.9 3 38.5 3C38.7 3 38.8 3 39 3C29 3.5 21 11.8 21 22C21 32.5 29.5 41 40 41C50.1 41 58.4 33 59 23C59 23.2 59 23.3 59 23.5C59 27.2 58 30.6 56.3 33.6C56.3 33.8 56.2 33.9 56.1 34.1Z" fill="#838383"/>
<path d="M49.9 20.7C50 21.1 50 21.5 50 22C50 27.5 45.5 32 40 32C34.5 32 30 27.5 30 22C30 16.5 34.5 12 40 12C40.5 12 40.9 12 41.3 12.1C41.3 12.3 41.4 12.5 41.6 12.6L49.4 20.4C49.5 20.6 49.7 20.6 49.9 20.7Z" fill="#F5F5F5"/>
<path d="M58.7 14.8L56.9 15.8C56.9 15.9 57 16 57 16.1L50.7 20.6C50.5 20.8 50.2 20.8 50 20.8C50 21.1 50 21.5 50 22C50 27.5 45.5 32 40 32C34.5 32 30 27.5 30 22C30 16.5 34.5 12 40 12C40.5 12 40.9 12 41.3 12.1C41.3 11.8 41.3 11.6 41.5 11.4L46 5.1C46.1 5.1 46.2 5.1 46.3 5.2L47.3 3.4C44.9 2.5 42.3 2 40 2C39.6 2 39.3 2 38.9 2C28.3 2.6 20 11.4 20 22C20 33 29 42 40 42C50.6 42 59.4 33.7 60 23.1C60 22.7 60 22.4 60 22C60 19.7 59.5 17.1 58.7 14.8Z" fill="#C1C1C1"/>
<path d="M45.7 4.9C43.9 4.3 42 4 40 4C30.1 4 22 12.1 22 22C22 31.9 30.1 40 40 40C49.9 40 58 31.9 58 22C58 20 57.7 18.1 57.1 16.3" stroke="white" stroke-miterlimit="10" stroke-dasharray="2 2"/>
<path d="M51.8 19.7C52 20.4 52 21.2 52 22C52 28.6 46.6 34 40 34C33.4 34 28 28.6 28 22C28 15.4 33.4 10 40 10C40.8 10 41.6 10.1 42.3 10.2" stroke="white" stroke-miterlimit="10" stroke-dasharray="2 2"/>
<path d="M59.2998 11.3999L50.4998 2.59993C49.5998 1.69993 48.1998 1.79993 47.4998 2.89993L41.4998 11.2999C41.2998 11.4999 41.2998 11.7999 41.2998 11.9999C41.2998 12.1999 41.3998 12.3999 41.5998 12.4999L49.3998 20.2999C49.5998 20.4999 49.7998 20.5999 49.9998 20.5999C50.2998 20.5999 50.4998 20.5999 50.6998 20.3999L59.0998 14.3999C60.0998 13.7999 60.1998 12.2999 59.2998 11.3999Z" fill="#838383"/>
<path d="M59.2996 11.4L50.1996 18.4L43.5996 11.8L50.5996 2.69995" stroke="white" stroke-miterlimit="10" stroke-dasharray="2 2"/>
</svg>
