<svg width="73" height="73" viewBox="0 0 73 73" fill="none" xmlns="http://www.w3.org/2000/svg">
<path d="M20.5312 25.0938V42.2031H52.4688V25.0938C52.4688 16.8813 45.8531 10.2656 37.6406 10.2656H35.3594C27.1469 10.2656 20.5312 16.8813 20.5312 25.0938ZM45.0547 34.7891H27.9453V25.6641C27.9453 21.2727 31.5383 17.6797 35.9297 17.6797H37.0703C41.4617 17.6797 45.0547 21.2727 45.0547 25.6641V34.7891Z" fill="#838383" stroke="#C1C1C1" stroke-width="2" stroke-miterlimit="10" stroke-linejoin="round"/>
<path d="M28.0027 15.3984C27.6605 15.3984 27.2613 15.2273 27.0332 14.8852C26.691 14.3719 26.805 13.6305 27.3183 13.2883C29.7136 11.6914 32.5082 10.8359 35.3597 10.8359C35.9871 10.8359 36.5003 11.3492 36.5003 11.9766C36.5003 12.6039 35.9871 13.1172 35.3597 13.1172C32.9644 13.1172 30.6261 13.8586 28.63 15.2273C28.4019 15.3414 28.1738 15.3984 28.0027 15.3984ZM24.4668 20.1891C24.923 19.1625 25.5503 18.193 26.2918 17.3375C26.691 16.8812 26.6339 16.1398 26.1777 15.7406C25.7214 15.3414 24.98 15.3984 24.5808 15.8547C23.7253 16.8812 22.9839 18.0219 22.4136 19.2766C22.1285 19.8469 22.4136 20.5313 22.9839 20.7594C23.155 20.8164 23.2691 20.8734 23.4402 20.8734C23.8394 20.8164 24.2386 20.5883 24.4668 20.1891Z" fill="white"/>
<path d="M39.9219 62.7344H33.0781C24.8656 62.7344 18.25 56.1187 18.25 47.9062V33.6484C18.7063 33.1922 18.9344 32.9641 19.3906 32.5078H53.6094C54.0656 32.9641 54.2938 33.1922 54.75 33.6484V47.9062C54.75 56.1187 48.1344 62.7344 39.9219 62.7344Z" fill="#C1C1C1" stroke="#C1C1C1" stroke-width="2" stroke-miterlimit="10" stroke-linejoin="round"/>
<path d="M37.0703 50.0164V48.4766H35.9297V50.0164C35.1313 50.2445 34.5039 51.043 34.5039 51.8984C34.5039 52.982 35.4164 53.8945 36.5 53.8945C37.5836 53.8945 38.4961 52.982 38.4961 51.8984C38.4961 50.9859 37.8688 50.2445 37.0703 50.0164Z" fill="#5D4037"/>
<path d="M7.52814 8.15544C5.41798 8.72575 4.10626 10.8929 4.7336 13.0601C5.30392 15.1703 7.4711 16.482 9.63829 15.8547C11.8055 15.2273 13.0602 13.1172 12.4328 10.95C11.8625 8.83981 9.63829 7.58513 7.52814 8.15544ZM8.15548 13.8586C7.24298 14.0867 6.33048 13.5734 6.04532 12.6609C5.8172 11.7484 6.33048 10.8359 7.24298 10.5508C8.15548 10.2656 9.06798 10.8359 9.35314 11.7484C9.63829 12.7179 9.06798 13.6304 8.15548 13.8586Z" fill="#F5F5F5" stroke="#8B8B8B" stroke-width="2" stroke-miterlimit="10" stroke-linejoin="round"/>
<path d="M11.0639 12.4897L16.5389 11.064L16.9951 12.7179L18.649 12.2616L18.1928 10.6077L19.8467 10.1515L19.2764 7.92725L10.4365 10.3226" fill="#F5F5F5"/>
<path d="M11.0639 12.4897L16.5389 11.064L16.9951 12.7179L18.649 12.2616L18.1928 10.6077L19.8467 10.1515L19.2764 7.92725L10.4365 10.3226" stroke="#8B8B8B" stroke-width="2" stroke-miterlimit="10" stroke-linejoin="round"/>
<path d="M60.5672 16.5391C58.9703 15.2844 56.6891 15.2273 55.0352 16.425C53.6664 17.3945 53.0961 18.9344 53.1531 20.3602C53.2102 20.9875 52.925 21.6148 52.4688 22.0711L51.6133 22.9266L54.8641 26.1773L55.7195 25.3219C56.1758 24.8656 56.8031 24.6375 57.4305 24.6375C58.6852 24.6945 59.9398 24.2953 60.9094 23.3258C62.8484 21.3867 62.7344 18.25 60.5672 16.5391ZM55.7195 22.1281C54.5789 20.9875 54.5789 19.2195 55.7195 18.0789C56.8602 16.9383 58.6281 16.9383 59.7688 18.0789C60.9094 19.2195 60.9094 20.9875 59.7688 22.1281C58.6281 23.2117 56.8031 23.2117 55.7195 22.1281Z" fill="white" stroke="#8B8B8B" stroke-width="2" stroke-miterlimit="10" stroke-linejoin="round"/>
<path d="M54.066 25.3217L51.2715 28.1163L52.4691 29.3139L51.2715 30.5116L50.0738 29.3139L48.8762 30.5116L47.2793 28.9147L52.5262 23.6678C54.066 22.128 55.7199 23.7249 54.066 25.3217Z" fill="#EEEEEE" stroke="#8B8B8B" stroke-width="2" stroke-miterlimit="10" stroke-linejoin="round"/>
<path d="M62.9051 59.3125C64.3879 58.4 65.1293 56.632 64.6731 54.8641C64.1027 52.7539 61.9356 51.4422 59.7684 52.0695C57.6582 52.6399 56.3465 54.807 56.9738 56.9742C57.4301 58.7422 59.027 59.8828 60.7379 59.9399L61.4793 62.7914L59.8254 63.2477L60.2816 64.9016L61.9356 64.4453L62.1067 65.0727L61.2512 65.3008L61.5363 66.3274L62.3918 66.0992L62.734 67.2969L64.9582 66.7266L62.9051 59.3125ZM58.9129 55.4914C58.6848 54.5789 59.1981 53.6664 60.1106 53.3813C61.0231 53.0961 61.9356 53.6664 62.2207 54.5789C62.5059 55.4914 61.9356 56.4039 61.0231 56.6891C60.1106 56.9742 59.1981 56.4039 58.9129 55.4914Z" fill="#F5F5F5" stroke="#8B8B8B" stroke-width="2" stroke-miterlimit="10" stroke-linejoin="round"/>
<path d="M14.3144 21.1584C14.1433 20.0178 13.2308 19.0482 12.0331 18.8201C10.8355 18.592 9.63781 19.2193 9.06749 20.1889C7.92687 20.36 6.95734 21.2725 6.72921 22.4701C6.44406 24.01 7.47062 25.4928 9.01046 25.7779L7.41359 34.7889L8.32609 36.1006L10.7784 35.3592L10.8925 34.7889L10.0941 32.9068L11.5769 31.1389L11.2347 29.6561L12.0902 28.0592L12.3753 26.3482C13.9152 26.6334 15.398 25.6068 15.6831 24.067C15.9112 22.9264 15.3409 21.7287 14.3144 21.1584ZM11.2917 23.0404C10.4933 22.9264 9.97999 22.185 10.1511 21.3865C10.2652 20.5881 11.0066 20.0748 11.805 20.2459C12.6034 20.36 13.1167 21.1014 12.9456 21.8998C12.7745 22.6412 12.0331 23.1545 11.2917 23.0404Z" fill="#F5F5F5" stroke="#8B8B8B" stroke-width="2" stroke-miterlimit="10" stroke-linejoin="round"/>
<path d="M10.7791 51.8984L6.3877 56.3469L7.18613 57.1453L7.58535 56.7461L9.18223 58.343L8.78301 58.7422L9.58144 59.5406L14.0299 55.1492L13.2314 54.2937L13.6307 53.8945L12.0338 52.2977L11.6346 52.6969L10.7791 51.8984Z" fill="#F5F5F5" stroke="#8B8B8B" stroke-width="2" stroke-miterlimit="10" stroke-linejoin="round"/>
<path d="M19.2195 58.6853C18.307 59.1985 17.4516 59.8259 16.6531 60.5673L9.01094 52.9251C8.66875 52.5829 8.15547 52.5829 7.81328 52.9251C7.47109 53.2673 7.47109 53.7806 7.81328 54.1228L15.5125 61.822C14.7711 62.6204 14.1437 63.4759 13.6305 64.3884L16.5391 67.297C17.6797 66.6126 18.7633 65.8142 19.7328 64.8446C20.7023 63.8751 21.5008 62.7915 22.1852 61.6509L19.2195 58.6853Z" fill="#F5F5F5" stroke="#8B8B8B" stroke-width="2" stroke-miterlimit="10" stroke-linejoin="round"/>
<path d="M17.6797 64.3884L19.2766 62.7915" stroke="#8B8B8B" stroke-width="2" stroke-miterlimit="10" stroke-linecap="round" stroke-linejoin="round"/>
</svg>
