<svg width="61" height="61" viewBox="0 0 61 61" fill="none" xmlns="http://www.w3.org/2000/svg">
<path d="M51.4904 58.5276L52.0837 57.9343C51.7601 57.6106 51.7601 57.1251 52.0837 56.8015C52.4074 56.4778 52.8929 56.4778 53.2165 56.8015L53.8099 56.2081C53.4862 55.8844 53.4862 55.399 53.8099 55.0753C54.1336 54.7516 54.619 54.7516 54.9427 55.0753L55.5361 54.4819C55.2124 54.1583 55.2124 53.6728 55.5361 53.3491C55.8597 53.0255 56.3452 53.0255 56.6689 53.3491L57.2622 52.7558C56.9386 52.4321 56.9386 51.9466 57.2622 51.623C57.5859 51.2993 58.0714 51.2993 58.395 51.623L58.7726 51.2454C58.449 50.9217 58.449 50.4362 58.7726 50.1126L58.2871 49.6271C57.9635 49.9508 57.478 49.9508 57.1543 49.6271C56.8307 49.3034 56.8307 48.818 57.1543 48.4943L56.6689 48.0088C56.3452 48.3325 55.8597 48.3325 55.5361 48.0088C55.2124 47.6852 55.2124 47.1997 55.5361 46.876L55.0506 46.3905C54.7269 46.7142 54.2414 46.7142 53.9178 46.3905C53.5941 46.0669 53.5941 45.5814 53.9178 45.2577L52.5692 43.9092L51.5982 44.8801C51.9219 45.2038 51.9219 45.6893 51.5982 46.0129C51.2746 46.3366 50.7891 46.3366 50.4655 46.0129L49.8721 46.6063C50.1957 46.93 50.1957 47.4154 49.8721 47.7391C49.5484 48.0628 49.0629 48.0628 48.7393 47.7391L48.092 48.2246C48.4156 48.5482 48.4156 49.0337 48.092 49.3574C47.7683 49.681 47.2828 49.681 46.9592 49.3574L46.3658 49.9508C46.6895 50.2744 46.6895 50.7599 46.3658 51.0836C46.0422 51.4072 45.5567 51.4072 45.233 51.0836L44.6396 51.6769C44.6936 51.7309 44.6936 51.7309 44.7475 51.7848C44.8015 51.7848 44.8015 51.8387 44.8554 51.8927C45.1791 52.2163 45.1791 52.7018 44.8554 53.0255L45.3409 53.511C45.6646 53.1873 46.15 53.1873 46.4737 53.511C46.7974 53.8346 46.7974 54.3201 46.4737 54.6438L46.9592 55.1292C47.2828 54.8056 47.7683 54.8056 48.092 55.1292C48.4156 55.4529 48.4156 55.9384 48.092 56.262L48.5775 56.7475C48.9011 56.4239 49.3866 56.4239 49.7103 56.7475C50.0339 57.0712 50.0339 57.5567 49.7103 57.8803L50.3036 58.4737C50.6812 58.204 51.2206 58.204 51.4904 58.5276Z" fill="white"/>
<path d="M19.5024 12.5686C19.8261 12.245 20.3115 12.245 20.6352 12.5686L21.2286 11.9753C20.9049 11.6516 20.9049 11.1661 21.2286 10.8425C21.5522 10.5188 22.0377 10.5188 22.3614 10.8425L23.3323 9.8715L22.3614 8.90053C22.0377 9.22419 21.5522 9.22419 21.2286 8.90053C20.9049 8.57688 20.9049 8.09139 21.2286 7.76774L20.6352 7.17437C20.3115 7.49802 19.8261 7.49802 19.5024 7.17437C19.1787 6.85071 19.1787 6.36523 19.5024 6.04157L18.909 5.44821C18.5854 5.77186 18.0999 5.77186 17.7762 5.44821C17.4526 5.12455 17.4526 4.63907 17.7762 4.31541L17.1829 3.72204C16.8592 4.0457 16.3737 4.0457 16.0501 3.72204C15.7264 3.39839 15.7264 2.9129 16.0501 2.58925L15.4567 1.99588C15.1331 2.31953 14.6476 2.31953 14.3239 1.99588C14.0003 1.67222 14.0003 1.18674 14.3239 0.863082L13.4069 0L12.4359 0.970967C12.7596 1.29462 12.7596 1.78011 12.4359 2.10376C12.1123 2.42742 11.6268 2.42742 11.3031 2.10376L10.7098 2.69713C11.0334 3.02079 11.0334 3.50627 10.7098 3.82993C10.3861 4.15358 9.90062 4.15358 9.57696 3.82993L8.98359 4.4233C9.30725 4.74695 9.30725 5.23243 8.98359 5.55609C8.65994 5.87975 8.17445 5.87975 7.8508 5.55609L7.25743 6.14946C7.58108 6.47312 7.58108 6.9586 7.25743 7.28225C6.93377 7.60591 6.44829 7.60591 6.12463 7.28225L5.53126 7.87562C5.85492 8.19928 5.85492 8.68476 5.53126 9.00842C5.20761 9.33207 4.72213 9.33207 4.39847 9.00842L3.48145 9.92544L4.45241 10.8964C4.77607 10.5728 5.26155 10.5728 5.58521 10.8964C5.90886 11.2201 5.90886 11.7055 5.58521 12.0292L6.17858 12.6226C6.50223 12.2989 6.98772 12.2989 7.31137 12.6226C7.63503 12.9462 7.63503 13.4317 7.31137 13.7554L7.90474 14.3487C8.2284 14.0251 8.71388 14.0251 9.03754 14.3487C9.36119 14.6724 9.36119 15.1579 9.03754 15.4815L9.6309 16.0749C9.95456 15.7512 10.44 15.7512 10.7637 16.0749C11.0874 16.3986 11.0874 16.884 10.7637 17.2077L11.3571 17.8011C11.6807 17.4774 12.1662 17.4774 12.4899 17.8011C12.8135 18.1247 12.8135 18.6102 12.4899 18.9339L13.4608 19.9048L14.4318 18.9339C14.1081 18.6102 14.1081 18.1247 14.4318 17.8011C14.7555 17.4774 15.2409 17.4774 15.5646 17.8011L16.158 17.2077C15.8343 16.884 15.8343 16.3986 16.158 16.0749C16.4816 15.7512 16.9671 15.7512 17.2908 16.0749L17.8841 15.4815C17.5605 15.1579 17.5605 14.6724 17.8841 14.3487C18.2078 14.0251 18.6933 14.0251 19.0169 14.3487L19.6103 13.7554C19.1787 13.4317 19.1787 12.8923 19.5024 12.5686Z" fill="#B0BEC5"/>
<path d="M57.0459 50.6977L52.4688 46.1206L46.3659 52.2235L50.943 56.8006L57.0459 50.6977Z" fill="#F5F5F5" stroke="#838383" stroke-width="2" stroke-miterlimit="10" stroke-linejoin="round"/>
<path d="M13.4069 2.29697L5.77832 9.92554L13.4069 17.5541L21.0355 9.92554L13.4069 2.29697Z" fill="#C1C1C1" stroke="#838383" stroke-width="2" stroke-miterlimit="10" stroke-linejoin="round"/>
<path d="M25.8676 30.9631L2.51039 16.2907C1.59337 15.6973 1 14.6724 1 13.5396V12.6226H59.258V13.5396C59.258 14.6724 58.6647 15.6973 57.7476 16.2907L34.3905 30.9631L30.6684 33.2826C30.2908 33.4984 29.8593 33.4984 29.5357 33.2826L25.8676 30.9631Z" fill="#838383"/>
<path d="M59.258 48.3864V49.3034H1V48.3864C1 47.2536 1.59337 46.2287 2.51039 45.6353L25.8676 30.9629L29.5896 33.2824C29.9672 33.4982 30.3987 33.4982 30.7224 33.2824L34.4444 30.9629L57.8016 45.6353C58.6647 46.2287 59.258 47.3075 59.258 48.3864Z" fill="#838383"/>
<path d="M59.2582 13.5396V48.3865C59.2582 47.2537 58.6648 46.2288 57.7478 45.6354L34.3906 30.963L57.7478 16.2906C58.6648 15.6973 59.2582 14.6723 59.2582 13.5396Z" fill="#F5F5F5"/>
<path d="M25.8676 30.963L2.51039 45.6354C1.59337 46.2288 1 47.2537 1 48.3865V13.5396C1 14.6723 1.59337 15.6973 2.51039 16.2906L25.8676 30.963Z" fill="#F5F5F5"/>
<path d="M59.258 48.3865V49.3035H1V48.3865V13.5396V12.6226H59.258V13.5396V48.3865Z" stroke="#C1C1C1" stroke-width="2" stroke-miterlimit="10" stroke-linejoin="round"/>
<path d="M34.3906 30.9631L57.7478 45.6355C58.6648 46.2289 59.2582 47.2538 59.2582 48.3866" stroke="#C1C1C1" stroke-width="2" stroke-miterlimit="10" stroke-linejoin="round"/>
<path d="M25.8676 30.9631L2.51039 45.6355C1.59337 46.2289 1 47.2538 1 48.3866" stroke="#C1C1C1" stroke-width="2" stroke-miterlimit="10" stroke-linejoin="round"/>
<path d="M1 13.5396C1 14.6723 1.59337 15.6973 2.51039 16.2906L25.8676 30.963L29.5896 33.2826C29.9672 33.4983 30.3987 33.4983 30.7224 33.2826L34.4444 30.963L57.8016 16.2906C58.7186 15.6973 59.312 14.6723 59.312 13.5396" stroke="#C1C1C1" stroke-width="2" stroke-miterlimit="10" stroke-linejoin="round"/>
<path d="M51.4361 13.4318C51.8676 13.4318 52.2452 13.8094 52.2452 14.2409H53.0543C53.0543 13.8094 53.4319 13.4318 53.8635 13.4318C54.295 13.4318 54.6726 13.8094 54.6726 14.2409H56.0212V13.9712C55.5896 13.9712 55.212 13.5936 55.212 13.1621C55.212 12.7305 55.5896 12.3529 56.0212 12.3529V11.6517C55.5896 11.6517 55.212 11.2741 55.212 10.8425C55.212 10.411 55.5896 10.0334 56.0212 10.0334V9.33214C55.5896 9.33214 55.212 8.95455 55.212 8.523C55.212 8.09146 55.5896 7.71386 56.0212 7.71386V7.01261C55.5896 7.01261 55.212 6.63501 55.212 6.20347C55.212 5.77193 55.5896 5.39433 56.0212 5.39433V4.53125H54.6726C54.6726 4.96279 54.295 5.34039 53.8635 5.34039C53.4319 5.34039 53.0543 4.96279 53.0543 4.53125H52.2452C52.2452 4.96279 51.8676 5.34039 51.4361 5.34039C51.0045 5.34039 50.6269 4.96279 50.6269 4.53125H49.8178C49.8178 4.96279 49.4402 5.34039 49.0086 5.34039C48.5771 5.34039 48.1995 4.96279 48.1995 4.53125H47.3904C47.3904 4.96279 47.0128 5.34039 46.5812 5.34039C46.1497 5.34039 45.7721 4.96279 45.7721 4.53125H44.9629C44.9629 4.96279 44.5853 5.34039 44.1538 5.34039C43.7223 5.34039 43.3447 4.96279 43.3447 4.53125H41.9961V4.80096C42.4276 4.80096 42.8052 5.17856 42.8052 5.6101C42.8052 6.04164 42.4276 6.41924 41.9961 6.41924V7.1205C42.4276 7.1205 42.8052 7.49809 42.8052 7.92964C42.8052 8.36118 42.4276 8.73877 41.9961 8.73877V9.44003C42.4276 9.44003 42.8052 9.81763 42.8052 10.2492C42.8052 10.6807 42.4276 11.0583 41.9961 11.0583V11.7596C42.4276 11.7596 42.8052 12.1372 42.8052 12.5687C42.8052 13.0002 42.4276 13.3778 41.9961 13.3778V14.2409H43.3447C43.3447 13.8094 43.7223 13.4318 44.1538 13.4318C44.5853 13.4318 44.9629 13.8094 44.9629 14.2409H45.7721C45.7721 13.8094 46.1497 13.4318 46.5812 13.4318C47.0128 13.4318 47.3904 13.8094 47.3904 14.2409H48.1995C48.1995 13.8094 48.5771 13.4318 49.0086 13.4318C49.4402 13.4318 49.8178 13.8094 49.8178 14.2409H50.6269C50.6269 13.8094 51.0045 13.4318 51.4361 13.4318Z" fill="white"/>
<path d="M30.8297 44.988C30.8837 44.5565 31.3152 44.2328 31.7467 44.3407L31.8546 43.6395C31.4231 43.5855 31.0994 43.154 31.2073 42.7224C31.2613 42.2909 31.6928 41.9672 32.1243 42.0751L32.2322 41.3739C31.8007 41.3199 31.477 40.8884 31.5849 40.4568C31.6388 40.0253 32.0704 39.7016 32.5019 39.8095L32.6098 39.1083C32.1783 39.0543 31.8546 38.6228 31.9625 38.1912C32.0164 37.7597 32.448 37.4361 32.8795 37.5439L32.9874 37.0045L32.448 36.8966C32.394 37.3282 31.9625 37.6518 31.531 37.5439C31.0994 37.49 30.7758 37.0585 30.8837 36.6269L30.1824 36.519C30.1285 36.9506 29.6969 37.2742 29.2654 37.1663C28.8338 37.1124 28.5102 36.6809 28.6181 36.2493L27.9168 36.1414C27.8629 36.573 27.4313 36.8966 26.9998 36.7887C26.5682 36.7348 26.2446 36.3033 26.3525 35.8717L25.6512 35.7638C25.5973 36.1954 25.1657 36.519 24.7342 36.4111C24.3027 36.3572 23.979 35.9257 24.0869 35.4941L23.5475 35.3862L23.4396 35.9257C23.8711 35.9796 24.1948 36.4111 24.0869 36.8427C24.0329 37.2742 23.6014 37.5979 23.1699 37.49L23.062 38.1912C23.4935 38.2452 23.8172 38.6767 23.7093 39.1083C23.6553 39.5398 23.2238 39.8635 22.7923 39.7556L22.5765 40.349C23.008 40.4029 23.3317 40.8344 23.2238 41.266C23.1699 41.6975 22.7383 42.0212 22.3068 41.9133L22.1989 42.6145C22.6304 42.6685 22.9541 43.1 22.8462 43.5316C22.7923 43.9631 22.3607 44.2868 21.9292 44.1789L21.8213 44.7183L22.3607 44.8262C22.4147 44.3946 22.8462 44.071 23.2777 44.1789C23.7093 44.2328 24.0329 44.6644 23.9251 45.0959L24.6263 45.2038C24.6802 44.7723 25.1118 44.4486 25.5433 44.5565C25.9749 44.6104 26.2985 45.042 26.1906 45.4735L26.8919 45.5814C26.9458 45.1498 27.3774 44.8262 27.8089 44.9341C28.2405 44.988 28.5641 45.4196 28.4562 45.8511L29.1575 45.959C29.2114 45.5274 29.643 45.2038 30.0745 45.3117C30.5061 45.3656 30.8297 45.7972 30.7218 46.2287L31.2612 46.3366L31.3691 45.7972C31.0455 45.8511 30.7218 45.4735 30.8297 44.988Z" fill="white"/>
<path d="M22.5773 56.6939C22.5233 56.2623 22.847 55.8308 23.2785 55.7768L23.1707 55.0756C22.7391 55.1295 22.3076 54.8059 22.2536 54.3743C22.1997 53.9428 22.5233 53.5112 22.9549 53.4573L22.847 52.756C22.4155 52.81 21.9839 52.4863 21.93 52.0548C21.876 51.6233 22.1997 51.1917 22.6312 51.1378L22.5233 50.4365C22.0918 50.4905 21.6603 50.1668 21.6063 49.7353C21.5524 49.3037 21.876 48.8722 22.3076 48.8182L22.2536 48.2788L21.4445 48.3867C21.4984 48.8182 21.1748 49.2498 20.7432 49.3037C20.3117 49.3577 19.8802 49.034 19.8262 48.6025L18.9092 48.7104C18.9631 49.1419 18.6395 49.5734 18.2079 49.6274C17.7764 49.6813 17.3449 49.3577 17.2909 48.9261L16.3739 49.034C16.4278 49.4655 16.1042 49.8971 15.6726 49.951C15.2411 50.005 14.8095 49.6813 14.7556 49.2498L14.1083 49.3037C14.1622 49.7353 13.8386 50.1668 13.407 50.2207C12.9755 50.2747 12.544 49.951 12.49 49.5195L11.573 49.6274C11.6269 50.0589 11.3033 50.4905 10.8717 50.5444C10.4402 50.5983 10.0087 50.2747 9.95471 49.8431L9.09163 49.8971C9.14557 50.3286 8.82192 50.7602 8.39037 50.8141C7.95883 50.8681 7.52729 50.5444 7.47335 50.1129L6.55632 50.2207C6.61027 50.6523 6.28661 51.0838 5.85507 51.1378C5.42353 51.1917 4.99199 50.8681 4.93805 50.4365L4.12891 50.5444L4.18285 51.0838C4.61439 51.0299 5.04593 51.3535 5.09987 51.7851C5.15382 52.2166 4.83016 52.6482 4.39862 52.7021L4.5065 53.4034C4.93805 53.3494 5.36959 53.6731 5.42353 54.1046C5.47747 54.5362 5.15382 54.9677 4.72227 55.0216L4.83016 55.7229C5.2617 55.669 5.69324 55.9926 5.74718 56.4241C5.80113 56.8557 5.47747 57.2872 5.04593 57.3412L5.15382 58.0424C5.58536 57.9885 6.0169 58.3121 6.07084 58.7437C6.12478 59.1752 5.80113 59.6068 5.36959 59.6607L5.42353 60.2001L6.23267 60.0922C6.17873 59.6607 6.50238 59.2292 6.93392 59.1752C7.36546 59.1213 7.79701 59.4449 7.85095 59.8765L8.76797 59.7686C8.71403 59.337 9.03769 58.9055 9.46923 58.8516C9.90077 58.7976 10.3323 59.1213 10.3863 59.5528L11.3033 59.4449C11.2493 59.0134 11.573 58.5818 12.0045 58.5279C12.4361 58.474 12.8676 58.7976 12.9216 59.2292L13.8386 59.1213C13.7846 58.6897 14.1083 58.2582 14.5398 58.2043C14.9714 58.1503 15.4029 58.474 15.4569 58.9055L16.3739 58.7976C16.3199 58.3661 16.6436 57.9345 17.0751 57.8806C17.5067 57.8267 17.9382 58.1503 17.9922 58.5818L18.9092 58.474C18.8552 58.0424 19.1789 57.6109 19.6104 57.5569C20.042 57.503 20.4735 57.8267 20.5275 58.2582L21.4445 58.1503C21.3905 57.7188 21.7142 57.2872 22.1457 57.2333C22.5773 57.1793 23.0088 57.503 23.0628 57.9345L23.8719 57.8267L23.818 57.2872C23.0088 57.4491 22.6312 57.1254 22.5773 56.6939Z" fill="white"/>
<path d="M54.4038 6.14941H43.6152V12.6225H54.4038V6.14941Z" fill="#F5F5F5" stroke="#838383" stroke-width="2" stroke-miterlimit="10" stroke-linejoin="round"/>
<path d="M31.1862 38.2075L24.8115 37.0837L23.6878 43.4585L30.0625 44.5822L31.1862 38.2075Z" fill="#F5F5F5" stroke="#C1C1C1" stroke-width="2" stroke-miterlimit="10" stroke-linejoin="round"/>
<path d="M20.9612 50.1214L5.95996 51.8855L6.71602 58.3146L21.7172 56.5505L20.9612 50.1214Z" fill="#838383" stroke="#C1C1C1" stroke-width="2" stroke-miterlimit="10" stroke-linejoin="round"/>
</svg>
