<svg width="73" height="73" viewBox="0 0 73 73" fill="none" xmlns="http://www.w3.org/2000/svg">
<path d="M17.1094 23.9531C19.3142 23.9531 21.1016 22.1658 21.1016 19.9609C21.1016 17.7561 19.3142 15.9688 17.1094 15.9688C14.9046 15.9688 13.1172 17.7561 13.1172 19.9609C13.1172 22.1658 14.9046 23.9531 17.1094 23.9531Z" fill="#EEEEEE" stroke="#B0BEC5" stroke-width="2" stroke-miterlimit="10" stroke-linejoin="round"/>
<path d="M53.6098 54.5219L18.3645 51.4422C17.1098 51.3281 16.1973 50.2445 16.3114 48.9899L18.0794 28.5156C18.1934 27.2609 19.277 26.3484 20.5317 26.4625L55.777 29.5422C57.0317 29.6563 57.9442 30.7398 57.8301 31.9945L56.0622 52.4688C55.9481 53.7234 54.8645 54.6359 53.6098 54.5219Z" fill="#B3E5FC" stroke="#90A4AE" stroke-width="2" stroke-miterlimit="10" stroke-linejoin="round"/>
<path d="M53.6094 43.8569L17.1094 45.1116V18.8772L53.6094 17.6226V43.8569Z" fill="#DCEDC8" stroke="#AFB42B" stroke-width="2" stroke-miterlimit="10" stroke-linejoin="round"/>
<path d="M53.4246 17.6615L17.0889 21.1292L19.5813 47.2455L55.917 43.7778L53.4246 17.6615Z" fill="#DCEDC8" stroke="#AFB42B" stroke-width="2" stroke-miterlimit="10" stroke-linejoin="round"/>
<path d="M58.9137 32.793L58.1152 41.8609L57.0316 41.7469L55.3207 41.6328L49.0473 41.0625C46.5379 40.8344 44.6558 38.6102 44.884 36.1008C45.1121 33.7055 47.1082 31.9375 49.4465 31.9375C49.5605 31.9375 49.7316 31.9375 49.8457 31.9375L55.2637 32.3937L57.0316 32.5648L58.9137 32.793Z" fill="#E4007D"/>
<path d="M53.6094 21.1016C55.4914 21.1016 57.0312 22.6414 57.0312 24.5234V32.6219L55.2633 32.4508L55.3203 31.9375V24.5234C55.3203 23.5539 54.5789 22.8125 53.6094 22.8125H15.9688C15.9688 21.843 16.7102 21.1016 17.6797 21.1016H53.6094Z" fill="#FFB74D"/>
<path d="M49.0469 41.0625L55.3203 41.6328V48.4766C55.3203 49.4461 54.5789 50.1875 53.6094 50.1875H15.9688V22.8125H53.6094C54.5789 22.8125 55.3203 23.5539 55.3203 24.5234V31.9375L55.2633 32.4508L49.8453 31.9945C49.7313 31.9945 49.5602 31.9945 49.4461 31.9945C47.1078 31.9945 45.1117 33.7625 44.8836 36.1578C44.6555 38.6102 46.5375 40.8344 49.0469 41.0625Z" fill="#E4007D"/>
<path d="M53.6094 51.8984H17.6797C16.7102 51.8984 15.9688 51.157 15.9688 50.1875H53.6094C54.5789 50.1875 55.3203 49.4461 55.3203 48.4766V41.6328L57.0312 41.8039V48.4766C57.0312 50.3586 55.4914 51.8984 53.6094 51.8984Z" fill="#E4007D"/>
<path d="M57.0312 41.7468V48.4765C57.0312 50.3585 55.4914 51.8984 53.6094 51.8984H17.6797C16.7102 51.8984 15.9688 51.157 15.9688 50.1875" stroke="#E4007D" stroke-width="2" stroke-miterlimit="10" stroke-linejoin="round"/>
<path d="M15.9688 22.8125V50.1875" stroke="#E4007D" stroke-width="2" stroke-miterlimit="10" stroke-linejoin="round"/>
<path d="M57.0312 32.6219V24.5234C57.0312 22.6414 55.4914 21.1016 53.6094 21.1016H17.6797C16.7102 21.1016 15.9688 21.843 15.9688 22.8125" stroke="#E4007D" stroke-width="2" stroke-miterlimit="10" stroke-linejoin="round"/>
<path d="M55.3203 41.6328V48.4766C55.3203 49.4461 54.5789 50.1875 53.6094 50.1875H15.9688" stroke="#FFCCBC" stroke-width="2" stroke-miterlimit="10" stroke-linecap="round" stroke-linejoin="round" stroke-dasharray="4 3"/>
<path d="M55.3203 31.9375V24.5234C55.3203 23.5539 54.5789 22.8125 53.6094 22.8125H15.9688" stroke="#FBE9E7" stroke-width="2" stroke-miterlimit="10" stroke-linecap="round" stroke-linejoin="round" stroke-dasharray="4 3"/>
<path d="M57.0316 32.6219L58.9137 32.793L58.1152 41.8609L57.0316 41.7469L55.3207 41.6328L49.0473 41.0625C46.5379 40.8344 44.6558 38.6102 44.884 36.1008C45.1121 33.7055 47.1082 31.9375 49.4465 31.9375C49.5605 31.9375 49.7316 31.9375 49.8457 31.9375L55.2637 32.3937L57.0316 32.6219Z" stroke="#E4007D" stroke-width="2" stroke-miterlimit="10" stroke-linejoin="round"/>
<path d="M51.3281 36.7852C51.3281 37.7547 50.5867 38.4961 49.6172 38.4961" stroke="#E4007D" stroke-width="2" stroke-miterlimit="10" stroke-linecap="round" stroke-linejoin="round"/>
<path d="M47.3359 36.7852C47.3359 35.5305 48.3625 34.5039 49.6172 34.5039" stroke="white" stroke-width="2" stroke-miterlimit="10" stroke-linecap="round" stroke-linejoin="round"/>
<path d="M11.9766 65.5859C15.4413 65.5859 18.25 62.7772 18.25 59.3125C18.25 55.8478 15.4413 53.0391 11.9766 53.0391C8.51184 53.0391 5.70312 55.8478 5.70312 59.3125C5.70312 62.7772 8.51184 65.5859 11.9766 65.5859Z" fill="#FFE082" stroke="#FFB74D" stroke-width="2" stroke-miterlimit="10" stroke-linejoin="round"/>
<path d="M19.3906 68.4375C22.2254 68.4375 24.5234 66.1395 24.5234 63.3047C24.5234 60.4699 22.2254 58.1719 19.3906 58.1719C16.5559 58.1719 14.2578 60.4699 14.2578 63.3047C14.2578 66.1395 16.5559 68.4375 19.3906 68.4375Z" fill="#FFECB3" stroke="#FFAB91" stroke-width="2" stroke-miterlimit="10" stroke-linejoin="round"/>
<path d="M36.5 65.0156C38.7048 65.0156 40.4922 63.2283 40.4922 61.0234C40.4922 58.8186 38.7048 57.0312 36.5 57.0312C34.2952 57.0312 32.5078 58.8186 32.5078 61.0234C32.5078 63.2283 34.2952 65.0156 36.5 65.0156Z" fill="#EEEEEE" stroke="#B0BEC5" stroke-width="2" stroke-miterlimit="10" stroke-linejoin="round"/>
<path d="M62.1641 22.2422C64.9988 22.2422 67.2969 19.9441 67.2969 17.1094C67.2969 14.2746 64.9988 11.9766 62.1641 11.9766C59.3293 11.9766 57.0312 14.2746 57.0312 17.1094C57.0312 19.9441 59.3293 22.2422 62.1641 22.2422Z" fill="#FFECB3" stroke="#FFAB91" stroke-width="2" stroke-miterlimit="10" stroke-linejoin="round"/>
<path d="M44.4844 12.5469C46.6892 12.5469 48.4766 10.7595 48.4766 8.55469C48.4766 6.34986 46.6892 4.5625 44.4844 4.5625C42.2796 4.5625 40.4922 6.34986 40.4922 8.55469C40.4922 10.7595 42.2796 12.5469 44.4844 12.5469Z" fill="#EEEEEE" stroke="#B0BEC5" stroke-width="2" stroke-miterlimit="10" stroke-linejoin="round"/>
</svg>
